<svg width="70" height="70" viewBox="0 0 70 70" fill="none" xmlns="http://www.w3.org/2000/svg">
<rect width="70" height="70" rx="35" fill="#307B74"/>
<path d="M37.75 45.75H33.25V38.5H32.3C31.72 38.5 31.25 38.03 31.25 37.45V35.55C31.25 34.97 31.72 34.5 32.3 34.5H33.25V32C33.25 29.93 34.93 28.25 37 28.25H39.7C40.28 28.25 40.75 28.72 40.75 29.3V31.7C40.75 32.28 40.28 32.75 39.7 32.75H37.75V34.5H39.63C39.95 34.5 40.24 34.64 40.44 34.88C40.64 35.12 40.72 35.44 40.66 35.75L40.28 37.65C40.18 38.14 39.75 38.49 39.25 38.49H37.75V45.75ZM34.75 44.25H36.25V37H38.89L39.09 36H36.26V32.3C36.26 31.72 36.73 31.25 37.31 31.25H39.26V29.75H37C35.76 29.75 34.75 30.76 34.75 32V36H32.75V37H34.75V44.25Z" fill="white"/>
<path d="M38 45.75H32C26.57 45.75 24.25 43.43 24.25 38V32C24.25 26.57 26.57 24.25 32 24.25H38C43.43 24.25 45.75 26.57 45.75 32V38C45.75 43.43 43.43 45.75 38 45.75ZM32 25.75C27.39 25.75 25.75 27.39 25.75 32V38C25.75 42.61 27.39 44.25 32 44.25H38C42.61 44.25 44.25 42.61 44.25 38V32C44.25 27.39 42.61 25.75 38 25.75H32Z" fill="white"/>
</svg>
