<svg width="24" height="25" viewBox="0 0 24 25" fill="none" xmlns="http://www.w3.org/2000/svg">
<path d="M12.1994 23.25C8.15945 23.25 4.51945 21.02 2.65945 17.43C2.62945 17.4 2.60945 17.36 2.58945 17.32C1.82945 15.8 1.43945 14.18 1.43945 12.5C1.43945 10.82 1.82945 9.19999 2.58945 7.67999C4.42945 4.01999 8.10945 1.75 12.1895 1.75C14.9295 1.75 17.4194 2.71999 19.3895 4.54999C19.5394 4.68999 19.6294 4.88 19.6294 5.09C19.6294 5.3 19.5495 5.49001 19.3995 5.64001L16.5795 8.39999C16.2895 8.67999 15.8395 8.69 15.5395 8.41C14.9095 7.82 13.8195 7.12 12.1895 7.12C10.1295 7.12 8.23945 8.36001 7.38945 10.29C7.31945 10.45 7.25945 10.6 7.19945 10.77C7.00945 11.35 6.91945 11.94 6.91945 12.51C6.91945 13.08 7.01945 13.65 7.19945 14.22C7.19945 14.23 7.20945 14.24 7.20945 14.26C7.92945 16.44 9.92945 17.9 12.1895 17.9C13.3795 17.9 14.3995 17.61 15.2295 17.03C15.9895 16.5 16.4695 15.79 16.7295 15.15H12.1994C11.7894 15.15 11.4494 14.81 11.4494 14.4V10.69C11.4494 10.28 11.7894 9.94 12.1994 9.94H21.5894C21.9394 9.94 22.2395 10.18 22.3195 10.52C22.4795 11.22 22.5495 11.88 22.5495 12.73C22.5495 15.91 21.4095 18.72 19.3295 20.64C17.4795 22.34 15.0094 23.25 12.1994 23.25ZM3.87945 16.55C3.90945 16.59 3.93945 16.64 3.95945 16.69C5.52945 19.8 8.68945 21.75 12.1994 21.75C14.6294 21.75 16.7394 20.98 18.3094 19.53C20.0794 17.9 21.0495 15.48 21.0495 12.72C21.0495 12.22 21.0295 11.82 20.9695 11.43H12.9494V13.64H17.7094C17.9194 13.64 18.1294 13.73 18.2694 13.89C18.4094 14.05 18.4794 14.27 18.4494 14.48C18.3194 15.6 17.6194 17.18 16.0894 18.25C15.0094 19 13.6995 19.39 12.1895 19.39C9.29945 19.39 6.73945 17.53 5.79945 14.75C5.79945 14.74 5.78945 14.73 5.78945 14.72C5.53945 13.99 5.41945 13.25 5.41945 12.51C5.41945 11.78 5.53945 11.04 5.77945 10.3C5.84945 10.08 5.92945 9.87999 6.01945 9.67999C7.11945 7.20999 9.53945 5.62 12.1895 5.62C13.8995 5.62 15.1594 6.22001 16.0194 6.85001L17.7694 5.14001C16.1894 3.90001 14.2695 3.25 12.1895 3.25C8.67945 3.25 5.50945 5.20001 3.92945 8.35001C3.27945 9.66001 2.93945 11.06 2.93945 12.5C2.94945 13.91 3.25945 15.27 3.87945 16.55Z" fill="black"/>
</svg>
