<svg width="61" height="61" viewBox="0 0 61 61" fill="none" xmlns="http://www.w3.org/2000/svg">
<rect width="61" height="61" rx="30.5" fill="#F4F4F4"/>
<path d="M28.1605 29.87C28.0605 29.86 27.9405 29.86 27.8305 29.87C25.4505 29.79 23.5605 27.84 23.5605 25.44C23.5605 22.99 25.5405 21 28.0005 21C30.4505 21 32.4405 22.99 32.4405 25.44C32.4305 27.84 30.5405 29.79 28.1605 29.87Z" stroke="#292D32" stroke-width="1.5" stroke-linecap="round" stroke-linejoin="round"/>
<path d="M35.4093 23C37.3493 23 38.9093 24.57 38.9093 26.5C38.9093 28.39 37.4093 29.93 35.5393 30C35.4593 29.99 35.3693 29.99 35.2793 30" stroke="#292D32" stroke-width="1.5" stroke-linecap="round" stroke-linejoin="round"/>
<path d="M23.1607 33.56C20.7407 35.18 20.7407 37.82 23.1607 39.43C25.9107 41.27 30.4207 41.27 33.1707 39.43C35.5907 37.81 35.5907 35.17 33.1707 33.56C30.4307 31.73 25.9207 31.73 23.1607 33.56Z" stroke="#292D32" stroke-width="1.5" stroke-linecap="round" stroke-linejoin="round"/>
<path d="M37.3398 39C38.0598 38.85 38.7398 38.56 39.2998 38.13C40.8598 36.96 40.8598 35.03 39.2998 33.86C38.7498 33.44 38.0798 33.16 37.3698 33" stroke="#292D32" stroke-width="1.5" stroke-linecap="round" stroke-linejoin="round"/>
</svg>
