<svg width="61" height="61" viewBox="0 0 61 61" fill="none" xmlns="http://www.w3.org/2000/svg">
<rect width="61" height="61" rx="30.5" fill="#F4F4F4"/>
<path d="M31.0206 21.9099C27.7106 21.9099 25.0206 24.5999 25.0206 27.9099V30.7999C25.0206 31.4099 24.7606 32.3399 24.4506 32.8599L23.3006 34.7699C22.5906 35.9499 23.0806 37.2599 24.3806 37.6999C28.6906 39.1399 33.3406 39.1399 37.6506 37.6999C38.8606 37.2999 39.3906 35.8699 38.7306 34.7699L37.5806 32.8599C37.2806 32.3399 37.0206 31.4099 37.0206 30.7999V27.9099C37.0206 24.6099 34.3206 21.9099 31.0206 21.9099Z" stroke="#292D32" stroke-width="1.5" stroke-miterlimit="10" stroke-linecap="round"/>
<path d="M32.8699 22.1999C32.5599 22.1099 32.2399 22.0399 31.9099 21.9999C30.9499 21.8799 30.0299 21.9499 29.1699 22.1999C29.4599 21.4599 30.1799 20.9399 31.0199 20.9399C31.8599 20.9399 32.5799 21.4599 32.8699 22.1999Z" stroke="#292D32" stroke-width="1.5" stroke-miterlimit="10" stroke-linecap="round" stroke-linejoin="round"/>
<path d="M34.0195 38.0601C34.0195 39.7101 32.6695 41.0601 31.0195 41.0601C30.1995 41.0601 29.4395 40.7201 28.8995 40.1801C28.3595 39.6401 28.0195 38.8801 28.0195 38.0601" stroke="#292D32" stroke-width="1.5" stroke-miterlimit="10"/>
</svg>
