<svg width="70" height="70" viewBox="0 0 70 70" fill="none" xmlns="http://www.w3.org/2000/svg">
<rect width="70" height="70" rx="35" fill="#307B74"/>
<path d="M29.9 43.6C31.4 44.5 33.2 45 35 45C40.5 45 45 40.5 45 35C45 29.5 40.5 25 35 25C29.5 25 25 29.5 25 35C25 36.8 25.5 38.5 26.3 40L25.4404 43.306C25.2457 44.0549 25.9389 44.7317 26.683 44.5191L29.9 43.6Z" stroke="white" stroke-width="1.5" stroke-miterlimit="10" stroke-linecap="round" stroke-linejoin="round"/>
<path d="M39.5 37.8485C39.5 38.0105 39.4639 38.177 39.3873 38.339C39.3107 38.501 39.2116 38.654 39.0809 38.798C38.86 39.041 38.6167 39.2165 38.3418 39.329C38.0714 39.4415 37.7784 39.5 37.4629 39.5C37.0033 39.5 36.512 39.392 35.9937 39.1715C35.4755 38.951 34.9572 38.654 34.4434 38.2805C33.9251 37.9025 33.4339 37.484 32.9652 37.0205C32.501 36.5525 32.0819 36.062 31.7078 35.549C31.3383 35.036 31.0408 34.523 30.8245 34.0145C30.6082 33.5015 30.5 33.011 30.5 32.543C30.5 32.237 30.5541 31.9445 30.6622 31.6745C30.7704 31.4 30.9417 31.148 31.1805 30.923C31.469 30.6395 31.7844 30.5 32.1179 30.5C32.2441 30.5 32.3703 30.527 32.483 30.581C32.6002 30.635 32.7038 30.716 32.7849 30.833L33.8305 32.3045C33.9116 32.417 33.9702 32.5205 34.0108 32.6195C34.0513 32.714 34.0739 32.8085 34.0739 32.894C34.0739 33.002 34.0423 33.11 33.9792 33.2135C33.9206 33.317 33.835 33.425 33.7268 33.533L33.3843 33.8885C33.3348 33.938 33.3122 33.9965 33.3122 34.0685C33.3122 34.1045 33.3167 34.136 33.3257 34.172C33.3393 34.208 33.3528 34.235 33.3618 34.262C33.4429 34.4105 33.5826 34.604 33.7809 34.838C33.9837 35.072 34.2 35.3105 34.4344 35.549C34.6778 35.7875 34.9121 36.008 35.151 36.2105C35.3853 36.4085 35.5791 36.5435 35.7323 36.6245C35.7549 36.6335 35.7819 36.647 35.8135 36.6605C35.8495 36.674 35.8856 36.6785 35.9261 36.6785C36.0028 36.6785 36.0613 36.6515 36.1109 36.602L36.4534 36.2645C36.5661 36.152 36.6743 36.0665 36.7779 36.0125C36.8816 35.9495 36.9852 35.918 37.0979 35.918C37.1835 35.918 37.2737 35.936 37.3728 35.9765C37.472 36.017 37.5756 36.0755 37.6883 36.152L39.18 37.2095C39.2972 37.2905 39.3783 37.385 39.4279 37.4975C39.473 37.61 39.5 37.7225 39.5 37.8485Z" stroke="white" stroke-width="1.5" stroke-miterlimit="10"/>
</svg>
